# xmcd
#
# Track frame offsets:
#	183
#	12615
#	24008
#	34280
#	48018
#	58898
#	71785
#	81830
#	94513
#	106068
#	115348
#	125030
#	135533
#	147613
#	161945
#	175375
#	182933
#	196665
#	210088
#	223513
#
# Disc length: 3110 seconds
#
# Revision: 0
# Processed by: cddbd v1.4PL0 Copyright (c) Steve Scherf et al.
# Submitted via: dBpowerAMP V4.0
#
DISCID=210c2414
DTITLE=Willie Nelson - The Best of Willie Nelson
DYEAR=1993
DGENRE=Country
TTITLE0=Country Willie
TTITLE1=Night Life
TTITLE2=There'll be No Tear Drops Tonight
TTITLE3=Funny How Time Slips Awy
TTITLE4=Hello Walls
TTITLE5=Crazy
TTITLE6=Touch Me
TTITLE7=Wake Me When It's All Over
TTITLE8=Seasons of my Heart
TTITLE9=Columbus Stockade Blues
TTITLE10=San Antonio Rose
TTITLE11=Heartaches by the Number
TTITLE12=Wabash Cannon Ball
TTITLE13=Family Bible
TTITLE14=Good-Hearted Woman
TTITLE15=Home in San Antone
TTITLE16=Have I Told You Lately that I Love You
TTITLE17=Help Me Make It through the Night
TTITLE18=I Love You Because
TTITLE19=Mr. Record Man
EXTD=
EXTT0=
EXTT1=
EXTT2=
EXTT3=
EXTT4=
EXTT5=
EXTT6=
EXTT7=
EXTT8=
EXTT9=
EXTT10=
EXTT11=
EXTT12=
EXTT13=
EXTT14=
EXTT15=
EXTT16=
EXTT17=
EXTT18=
EXTT19=
PLAYORDER=
